HIERARCHY
ROOT Hips
{
	OFFSET 0.00 0.00 0.00
	CHANNELS 6 Xposition Yposition Zposition Xrotation Yrotation Zrotation
	JOINT Spine
	{
		OFFSET 0.00000 7.06766 0.00000
		CHANNELS 3 Xrotation Yrotation Zrotation
		JOINT Head
		{
			OFFSET 0.00000 15.03989 0.00000
			CHANNELS 3 Xrotation Yrotation Zrotation
			End Site
			{
				OFFSET 0.00000 4.52755 0.00000
			}
		}
		JOINT LeftShoulder
		{
			OFFSET 0.00000 10.53037 0.00000
			CHANNELS 3 Xrotation Yrotation Zrotation
			JOINT LeftArm
			{
				OFFSET 7.02886 0.00000 0.00000
				CHANNELS 3 Xrotation Yrotation Zrotation
				JOINT LeftForeArm
				{
					OFFSET 10.79770 0.00000 0.00000
					CHANNELS 3 Yrotation Zrotation Xrotation
					JOINT LeftHand
					{
						OFFSET 7.90744 0.00000 0.00000
						CHANNELS 3 Xrotation Yrotation Zrotation
						JOINT LeftHandThumb1
						{
							OFFSET 0.00000 0.00000 0.00000
							CHANNELS 3 Xrotation Zrotation Yrotation
							End Site
							{
								OFFSET 0.00000 0.00000 3.93700
							}
						}
						End Site
						{
							OFFSET 3.93700 0.00000 0.00000
						}
					}
				}
			}
		}
		JOINT RightShoulder
		{
			OFFSET 0.00000 10.53037 0.00000
			CHANNELS 3 Xrotation Yrotation Zrotation
			JOINT RightArm
			{
				OFFSET -7.02886 0.00000 0.00000
				CHANNELS 3 Xrotation Yrotation Zrotation
				JOINT RightForeArm
				{
					OFFSET -10.79770 0.00000 0.00000
					CHANNELS 3 Yrotation Zrotation Xrotation
					JOINT RightHand
					{
						OFFSET -7.90744 0.00000 0.00000
						CHANNELS 3 Xrotation Yrotation Zrotation
						JOINT RightHandThumb1
						{
							OFFSET 0.00000 0.00000 0.00000
							CHANNELS 3 Xrotation Zrotation Yrotation
							End Site
							{
								OFFSET 0.00000 0.00000 3.93700
							}
						}
						End Site
						{
							OFFSET -3.93700 0.00000 0.00000
						}
					}
				}
			}
		}
	}
	JOINT LeftUpLeg
	{
		OFFSET 4.01300 0.00000 0.00000
		CHANNELS 3 Xrotation Yrotation Zrotation
		JOINT LeftLeg
		{
			OFFSET 0.00000 -16.89976 0.00000
			CHANNELS 3 Xrotation Yrotation Zrotation
			JOINT LeftFoot
			{
				OFFSET 0.00000 -17.38918 0.00000
				CHANNELS 3 Xrotation Yrotation Zrotation
				JOINT LeftToeBase
				{
					OFFSET 0.00000 -1.27456 4.75673
					CHANNELS 3 Xrotation Yrotation Zrotation
					End Site
					{
						OFFSET 0.00000 0.00000 2.95275
					}
				}
			}
		}
	}
	JOINT RightUpLeg
	{
		OFFSET -4.01300 0.00000 0.00000
		CHANNELS 3 Xrotation Yrotation Zrotation
		JOINT RightLeg
		{
			OFFSET 0.00000 -16.89976 0.00000
			CHANNELS 3 Xrotation Yrotation Zrotation
			JOINT RightFoot
			{
				OFFSET 0.00000 -17.38918 0.00000
				CHANNELS 3 Xrotation Yrotation Zrotation
				JOINT RightToeBase
				{
					OFFSET 0.00000 -1.27456 4.75673
					CHANNELS 3 Xrotation Yrotation Zrotation
					End Site
					{
						OFFSET 0.00000 0.00000 2.95275
					}
				}
			}
		}
	}
}
MOTION
Frames: 7
Frame Time: 0.008333
 18.4939 35.5227 -23.7790 171.8306 -1.3980 179.0778 -19.0716 0.9927 0.3559 6.6838 -1.4792 1.7119 -29.2267 4.0273 16.1174 1.3940 -7.4947 -7.4532 0.6311 0.0000 8.8450 1.2335 11.0229 -6.4253 33.1476 -0.0000 26.2537 8.1517 -15.0498 -6.5393 -39.7858 3.5797 11.2425 6.1289 -0.0000 37.8041 1.2631 -9.4600 7.6409 32.8623 0.0000 -24.3270 1.7210 9.0646 0.3426 -6.6148 0.0000 0.0000 -18.4899 28.7486 2.9939 26.0142 -0.0000 -0.0000 1.3226 -9.9057 1.7618 -3.9059 0.0000 0.0000 -18.9644 -29.1094 -1.5438 23.2204 0.0000 -0.0000
 18.4941 35.5233 -23.7781 171.8369 -1.3872 179.0759 -19.0708 1.0008 0.3739 6.7209 -1.4929 1.6912 -29.2596 3.9822 16.0921 1.4283 -7.4702 -7.4183 0.6135 0.0000 8.8549 1.2287 11.0008 -6.4133 33.1476 -0.0000 26.2537 8.1263 -15.0299 -6.5496 -39.7769 3.5492 11.1901 6.1477 -0.0000 37.8554 1.2500 -9.3876 7.6197 32.8623 0.0000 -24.3270 1.7282 9.0716 0.3436 -6.6174 0.0000 0.0000 -18.4773 28.7555 2.9787 26.0011 -0.0000 0.0000 1.3210 -9.8966 1.7636 -3.8958 -0.0000 0.0000 -18.9638 -29.1109 -1.5150 23.2210 0.0000 -0.0000
 18.4939 35.5238 -23.7772 171.8410 -1.3835 179.0721 -19.0741 1.0372 0.3819 6.7628 -1.5179 1.7048 -29.2209 3.9342 16.0671 1.4003 -7.4710 -7.4003 0.6088 0.0000 8.8234 1.2208 10.9995 -6.3726 33.1476 -0.0000 26.2537 8.1188 -15.0346 -6.5562 -39.7676 3.5117 11.1550 6.1710 -0.0000 37.8807 1.2498 -9.3629 7.6377 32.8623 0.0000 -24.3270 1.7311 9.0736 0.3477 -6.6186 -0.0000 -0.0000 -18.4739 28.7546 2.9783 26.0302 0.0000 -0.0000 1.3223 -9.8956 1.7679 -3.8945 -0.0000 -0.0000 -18.9541 -29.1122 -1.5097 23.1731 0.0000 -0.0000
 18.4945 35.5238 -23.7765 171.8448 -1.3709 179.0688 -19.0696 1.0403 0.3939 6.7701 -1.5193 1.6966 -29.2378 3.9037 16.0749 1.3872 -7.4490 -7.3943 0.5924 0.0000 8.8465 1.2219 11.0189 -6.3678 33.1476 -0.0000 26.2537 8.1055 -15.0416 -6.5699 -39.7822 3.5196 11.1636 6.1698 -0.0000 37.8862 1.2465 -9.3660 7.6158 32.8623 0.0000 -24.3270 1.7331 9.0908 0.3516 -6.6166 -0.0000 0.0000 -18.4776 28.7467 2.9866 26.0317 0.0000 0.0000 1.3223 -9.8728 1.7712 -3.8905 -0.0000 -0.0000 -18.9582 -29.1178 -1.5334 23.1830 0.0000 -0.0000
 18.4953 35.5240 -23.7755 171.8485 -1.3579 179.0698 -19.0709 1.0404 0.4008 6.8039 -1.5326 1.6908 -29.2271 3.8835 16.0671 1.3733 -7.4383 -7.3661 0.5893 0.0000 8.8427 1.2315 11.0396 -6.4056 33.1476 -0.0000 26.2537 8.1178 -15.0376 -6.5699 -39.7625 3.5462 11.1537 6.1649 -0.0000 37.8503 1.2541 -9.4693 7.5797 32.8623 0.0000 -24.3270 1.7384 9.0966 0.3515 -6.6193 0.0000 -0.0000 -18.4632 28.7483 2.9736 25.9832 0.0000 -0.0000 1.3246 -9.8624 1.7713 -3.8914 0.0000 -0.0000 -18.9177 -29.1507 -1.4430 23.0739 0.0000 -0.0000
 18.4959 35.5240 -23.7746 171.8539 -1.3506 179.0721 -19.0644 1.0387 0.4011 6.8256 -1.5022 1.6925 -29.2349 3.8577 16.0757 1.3415 -7.4235 -7.3615 0.5988 0.0000 8.8655 1.2273 11.0205 -6.3945 33.1476 -0.0000 26.2537 8.1163 -15.0245 -6.5740 -39.7642 3.5366 11.1296 6.1871 -0.0000 37.9177 1.2631 -9.4482 7.6500 32.8623 0.0000 -24.3270 1.7463 9.0952 0.3507 -6.6249 -0.0000 -0.0000 -18.4707 28.7586 2.9821 26.0285 0.0000 0.0000 1.3256 -9.8573 1.7685 -3.8912 0.0000 -0.0000 -18.9607 -29.1202 -1.5132 23.2298 0.0000 -0.0000
 18.4964 35.5243 -23.7735 171.8580 -1.3396 179.0698 -19.0572 1.0376 0.4108 6.8378 -1.4988 1.6891 -29.2547 3.8294 16.0804 1.3576 -7.4052 -7.3558 0.6005 0.0000 8.8742 1.2196 11.0218 -6.3540 33.1476 -0.0000 26.2537 8.1176 -15.0250 -6.5732 -39.7480 3.5594 11.1171 6.1607 -0.0000 37.9354 1.2429 -9.3784 7.5839 32.8623 0.0000 -24.3270 1.7479 9.1086 0.3539 -6.6213 -0.0000 -0.0000 -18.4667 28.7566 2.9795 25.9979 0.0000 -0.0000 1.3249 -9.8613 1.7726 -3.8849 -0.0000 0.0000 -18.9536 -29.1058 -1.4969 23.1759 0.0000 0.0000
